<?xml version="1.0" encoding="utf-8"?>
<!-- Generator: Adobe Illustrator 26.0.0, SVG Export Plug-In . SVG Version: 6.00 Build 0)  -->
<svg version="1.1" id="Layer_1" xmlns="http://www.w3.org/2000/svg" xmlns:xlink="http://www.w3.org/1999/xlink" x="0px" y="0px"
	 viewBox="0 0 40.3 48.2" style="enable-background:new 0 0 40.3 48.2;" xml:space="preserve">
<style type="text/css">
	.st0{display:none;}
	.st1{fill:#FFFFFF;}
</style>
<g id="Background_xA0_Image_00000142882430302864832060000003041082666111413434_" class="st0">
</g>
<path class="st1" d="M6.5,16.9c0,7.6,0,15.1,0,22.7c7.5,0,15.1,0,22.7,0c0-0.2,0-0.4,0-0.6c0-3.8,0-7.6,0-11.4c0-0.1,0-0.3,0-0.4
	c0.1-0.7,0.6-1.2,1.3-1.2c0.7,0,1.2,0.6,1.3,1.2c0,0.1,0,0.2,0,0.4c0,3.9,0,7.9,0,11.8c0,1.7-1.1,2.7-2.7,2.7c-7.4,0-14.9,0-22.3,0
	c-1.8,0-2.8-1-2.8-2.7C4,32,4,24.5,4,17c0-1.6,1.1-2.7,2.7-2.7c4,0,8,0,12,0c0.1,0,0.2,0,0.3,0c0.7,0.1,1.2,0.6,1.2,1.3
	c0,0.6-0.5,1.2-1.2,1.2c-0.4,0-0.7,0-1.1,0c-3.6,0-7.1,0-10.7,0C6.9,16.9,6.7,16.9,6.5,16.9z"/>
<path class="st1" d="M36.8,13.7c0,1.3-0.5,2.4-1.4,3.2c-4,4-8.1,8.1-12.1,12.1c-0.2,0.2-0.6,0.4-0.9,0.5c-1.8,0.4-3.7,0.8-5.5,1.2
	c-1,0.2-1.7-0.6-1.5-1.6c0.4-1.8,0.8-3.6,1.2-5.4c0.1-0.3,0.3-0.7,0.5-0.9c4-4,8.1-8.1,12.1-12.1C30.4,9.4,32.4,9,34,9.6
	C35.7,10.3,36.8,11.9,36.8,13.7z M27.9,15.5c-2.7,2.7-5.4,5.4-8.1,8.1c-0.6,0.6-0.9,1.1-1.1,1.9c-0.1,0.7-0.3,1.5-0.5,2.3
	c0.9-0.2,1.7-0.4,2.6-0.5c0.6-0.1,1-0.4,1.5-0.8c2.3-2.4,4.7-4.7,7.1-7.1c0.4-0.4,0.8-0.8,1.2-1.1C29.6,17.3,28.8,16.4,27.9,15.5z
	 M32.4,16.3c0.5-0.5,1-0.9,1.5-1.4c0.6-0.7,0.5-1.8-0.1-2.5c-0.6-0.6-1.8-0.8-2.5-0.2c-0.5,0.5-1,1-1.5,1.5
	C30.6,14.6,31.5,15.4,32.4,16.3z"/>
<rect x="20.1" y="22.7" transform="matrix(0.7071 -0.7071 0.7071 0.7071 -11.1472 22.3773)" class="st1" width="2.7" height="3.9"/>
</svg>
