<?xml version="1.0" encoding="utf-8"?>
<!-- Generator: Adobe Illustrator 26.0.0, SVG Export Plug-In . SVG Version: 6.00 Build 0)  -->
<svg version="1.1" id="Layer_1" xmlns="http://www.w3.org/2000/svg" xmlns:xlink="http://www.w3.org/1999/xlink" x="0px" y="0px"
	 viewBox="0 0 100 100" style="enable-background:new 0 0 100 100;" xml:space="preserve">
<style type="text/css">
	.st0{fill:#62707C;}
</style>
<g>
	<g>
		<path class="st0" d="M60.6,21.1c6.4,6.1,12.6,12.2,18.9,18.2c0.1,0.1,0.3,0.3,0.4,0.5c-0.3,0.3-0.5,0.6-0.8,0.8
			C63,56.1,46.9,71.6,30.8,87.1c-0.7,0.6-1.6,1.1-2.5,1.3c-7,1.7-13.9,3.4-20.9,5c-1.9,0.5-3-0.7-2.6-2.5c1.8-6.9,3.5-13.7,5.3-20.6
			c0.1-0.6,0.5-1.1,0.9-1.5C27.4,53,43.7,37.3,60.1,21.6C60.2,21.4,60.4,21.3,60.6,21.1z"/>
		<path class="st0" d="M66.5,15.8c2.4-2.4,4.7-5.1,7.3-7.3c3.5-2.9,9.1-2.7,12.6,0.3c2.2,2,4.4,4,6.4,6.2c3.1,3.3,3.4,8.2,0.6,11.6
			c-2.3,2.8-5.1,5.2-7.6,7.7C79.2,28.1,72.8,21.9,66.5,15.8z"/>
	</g>
</g>
</svg>
