<?xml version="1.0" encoding="utf-8"?>
<!-- Generator: Adobe Illustrator 26.0.0, SVG Export Plug-In . SVG Version: 6.00 Build 0)  -->
<svg version="1.1" id="Layer_1" xmlns="http://www.w3.org/2000/svg" xmlns:xlink="http://www.w3.org/1999/xlink" x="0px" y="0px"
	 viewBox="0 0 595.3 841.9" style="enable-background:new 0 0 595.3 841.9;" xml:space="preserve">
<style type="text/css">
	.st0{fill-rule:evenodd;clip-rule:evenodd;fill:#004583;}
	.st1{fill:none;stroke:#004583;stroke-width:0.6554;stroke-miterlimit:22.9256;}
	.st2{fill:#004583;}
</style>
<path class="st0" d="M434.6,416.6c-1.3,0.6-2.6,1-4,1.5c-1.9,0.6-3.1,1.2-3.6,1.9c-0.5,0.6-0.7,1.3-0.7,2.1c0,0.9,0.2,1.6,0.7,2.2
	c0.5,0.6,1.2,0.8,2.3,0.8c1,0,2-0.3,2.9-0.9c0.9-0.6,1.5-1.4,1.9-2.3c0.3-0.9,0.6-2.1,0.6-3.5V416.6z M426.5,410.7l-8.8-1.1
	c0.3-1.9,0.8-3.4,1.5-4.5c0.6-1.1,1.5-2,2.7-2.8c0.8-0.6,2-1.1,3.5-1.4c1.5-0.3,3.1-0.5,4.8-0.5c2.8,0,5,0.2,6.7,0.6
	c1.6,0.3,3,1.1,4.2,2.4c0.8,0.8,1.4,2,1.9,3.5c0.5,1.5,0.7,3,0.7,4.4v13.1c0,1.4,0.1,2.5,0.2,3.3c0.2,0.8,0.5,1.8,1,3h-8.7
	c-0.3-0.8-0.6-1.4-0.7-1.7c-0.1-0.4-0.2-1-0.3-1.9c-1.2,1.4-2.4,2.4-3.6,3c-1.6,0.8-3.5,1.2-5.7,1.2c-2.9,0-5.1-0.8-6.5-2.5
	c-1.5-1.6-2.3-3.7-2.3-6c0-2.3,0.5-4.1,1.6-5.6c1.1-1.5,3.1-2.5,6-3.3c3.5-0.8,5.7-1.4,6.8-1.8c1-0.3,2.1-0.8,3.3-1.3
	c0-1.4-0.2-2.4-0.7-2.9c-0.5-0.6-1.3-0.8-2.5-0.8c-1.5,0-2.6,0.3-3.4,0.9C427.4,408.5,426.9,409.4,426.5,410.7z M397.6,430.7h-8.5
	V390c0.1,0.1,0.2,0.1,0.3,0.2c3,2.7,1,24.6,1.5,32C391.2,426.8,394.2,430,397.6,430.7z M389.1,389.9h9.5v21l6.9-9.7h11.4l-8.7,10.3
	l9.2,19.3H407l-5-11.9l-3.5,4.2v7.7h-0.1c-3.9-1.1-6.5-5-6.7-9.4C391.4,413.7,393.4,391,389.1,389.9L389.1,389.9z M379,401.1h7.3
	v29.6H381C383,419.5,376.1,413.1,379,401.1z M377,401.1h1.9c-4.2,13.9,2.9,19,1.6,29.6H377V401.1z M377,389.9h9.3v7.7H377V389.9z
	 M368.4,431.4c-2.3-0.1-3.9-0.4-5-1.1c-1.1-0.7-1.9-1.8-2.4-3.3c-0.6-1.5-0.8-3.9-0.8-7.2v-10.4h-3.4v-8.3h3.4v-5.5l0.2-0.1
	c1.2,7.2,0.6,22.1,1.2,27.9C362.1,427.9,365.1,430.9,368.4,431.4z M369.5,389.9v11.3h5.1v8.3h-5.1v10.5c0,1.2,0.1,2.1,0.3,2.5
	c0.3,0.6,0.8,1,1.6,1c0.7,0,1.6-0.2,2.9-0.7l0.7,7.8c-1.9,0.5-3.7,0.8-5.4,0.9c-4.1-0.7-6.8-4.4-7.1-8.8c-0.4-5.7,0.1-20.3-1.5-27.3
	L369.5,389.9z M329.9,422.5l9.2-1c0.4,1.3,0.9,2.3,1.6,2.8c0.7,0.6,1.6,0.8,2.8,0.8c1.2,0,2.2-0.3,2.9-1c0.6-0.5,0.8-1.1,0.8-1.8
	c0-0.8-0.4-1.5-1.1-1.9c-0.5-0.3-1.9-0.7-4-1.1c-3.2-0.7-5.5-1.4-6.7-1.9c-1.2-0.6-2.3-1.6-3.2-3c-0.8-1.4-1.3-3-1.3-4.8
	c0-1.9,0.5-3.6,1.4-5c0.9-1.4,2.2-2.5,3.8-3.2c1.6-0.7,3.8-1.1,6.5-1.1c2.9,0,5,0.3,6.4,0.8c1.4,0.5,2.5,1.4,3.4,2.5
	c0.9,1.1,1.7,2.7,2.3,4.6l-8.7,1c-0.2-0.9-0.6-1.6-1.1-2.1c-0.7-0.6-1.6-0.8-2.6-0.8c-1.1,0-1.8,0.2-2.3,0.7c-0.5,0.5-0.7,1-0.7,1.6
	c0,0.7,0.3,1.3,0.9,1.6c0.6,0.4,1.9,0.7,3.9,1c3.1,0.5,5.4,1,6.9,1.8c1.5,0.7,2.6,1.9,3.4,3.3c0.8,1.4,1.2,2.9,1.2,4.6
	c0,1.7-0.4,3.4-1.2,5c-0.8,1.6-2.2,2.9-4,3.8c-1.8,1-4.3,1.5-7.4,1.5c-4.5,0-7.6-0.8-9.5-2.3C331.7,427.5,330.5,425.3,329.9,422.5z
	 M318.8,416.6c-1.3,0.6-2.6,1-4,1.5c-1.9,0.6-3.1,1.2-3.6,1.9c-0.5,0.6-0.8,1.3-0.8,2.1c0,0.9,0.3,1.6,0.8,2.2
	c0.5,0.6,1.2,0.8,2.3,0.8c1,0,2-0.3,2.9-0.9c0.9-0.6,1.5-1.4,1.9-2.3c0.3-0.9,0.6-2.1,0.6-3.5V416.6z M310.7,410.7l-8.8-1.1
	c0.3-1.9,0.8-3.4,1.5-4.5c0.6-1.1,1.5-2,2.7-2.8c0.8-0.6,2-1.1,3.5-1.4c1.5-0.3,3.1-0.5,4.8-0.5c2.8,0,5,0.2,6.6,0.6
	c1.7,0.3,3.1,1.1,4.2,2.4c0.8,0.8,1.4,2,1.9,3.5c0.5,1.5,0.7,3,0.7,4.4v13.1c0,1.4,0.1,2.5,0.2,3.3c0.2,0.8,0,1.8,0.6,3h-8.3
	c-0.3-0.8-0.6-1.4-0.7-1.7c-0.1-0.4-0.2-1-0.3-1.9c-1.2,1.4-2.4,2.4-3.6,3c-1.7,0.8-3.5,1.2-5.7,1.2c-2.9,0-5.1-0.8-6.5-2.5
	c-1.5-1.6-2.3-3.7-2.3-6c0-2.3,0.5-4.1,1.6-5.6c1.1-1.5,3.1-2.5,6-3.3c3.5-0.8,5.7-1.4,6.8-1.8c1.1-0.3,2.1-0.8,3.3-1.3
	c0-1.4-0.2-2.4-0.7-2.9c-0.5-0.6-1.3-0.8-2.5-0.8c-1.5,0-2.6,0.3-3.4,0.9C311.6,408.5,311.1,409.4,310.7,410.7z M274.7,401.1h8.8
	l4.7,18.7l4.9-18.7h9.3l-10.3,29.6h-4.4C280.6,425.8,280.4,402.9,274.7,401.1z M273.9,401.1L273.9,401.1c0.1,0,0.2,0.1,0.3,0.1
	c6.1,4.2,5.9,24.7,12.4,29.5h-2.6L273.9,401.1z M274.1,418.7v1.5h-13.5v-8.5C262.2,420.1,272.9,411,274.1,418.7z M260.6,411.4h13.5
	v6C272.7,410.9,262.3,418.1,260.6,411.4z M243.8,431.3c-0.5,0.1-1,0.1-1.5,0.1c-2.6,0-4.6-1-6-2.8c-1.4-1.9-2.1-4.7-2.1-8.6v-18.8
	l0.5,0.2c2.3,0.8,1,18.1,1.5,23.5C236.3,428.7,240,431.2,243.8,431.3z M251,430.6v-4.7c-1.3,2-2.6,3.4-3.9,4.2c-1,0.6-2,1-3.2,1.2
	c-4.2-0.7-6.9-3.7-7-7c-0.3-5.6,1.7-22.6-2.8-23.1h9.3v16.3c0,1.9,0.3,3.2,0.8,3.9c0.6,0.8,1.4,1.2,2.4,1.2c1.1,0,2-0.5,2.7-1.6
	c0.7-1,1.1-2.9,1.1-5.6v-14.3h9.2c-3.4,1.5-2.3,17.3-2.6,22.6C256.7,427,254.4,429.9,251,430.6z M259.7,430.7h-8.5
	c3.2-0.3,6.1-2.7,6.5-6.3c0.6-5.4-0.1-22.4,2-23.2h0.1V430.7z M347,412.3c-0.2-0.1-0.3-0.1-0.5-0.1c4.6,1.2,7.7,5.9,7,10.7
	c-0.7,4.7-5.1,7.8-9.7,7c0.1,0,0.3,0.1,0.5,0.1c4.8,1.1,9.4-2,10.1-6.9C355.1,418.1,351.8,413.3,347,412.3z M341.5,401.6
	c0.1,0,0.3,0,0.5,0c-5.1,0-9.2,3.3-9.4,7.5c-0.2,4.2,3.7,7.9,8.8,8.3c-0.2,0-0.3,0-0.5,0c-5.3-0.3-9.4-4-9.3-8.4
	C331.8,404.7,336.2,401.3,341.5,401.6z M421.9,415.6c0.1-0.1,0.2-0.1,0.3-0.1c-3.3,1.6-4.6,5.8-3.4,9.7c1.2,3.8,4.4,5.9,7.8,4.7
	c-0.1,0.1-0.2,0.1-0.3,0.2c-3.4,1.5-7.2-0.5-8.4-4.5C416.6,421.5,418.5,417.1,421.9,415.6z M219.6,404.6c-0.2,0-0.4-0.1-0.6-0.1
	c6.8,1.4,11.6,7.8,10.9,14.8c-0.7,7-6.8,11.8-13.6,11.2c0.2,0.1,0.4,0.1,0.6,0.1c7.1,1.1,13.5-3.9,14.2-11
	C231.8,412.3,226.7,405.6,219.6,404.6z M217.9,389.7c0.2,0,0.5,0,0.7,0c-7.4,0.3-13.2,5.3-13.2,11.5c0,6.2,5.8,11.2,13.2,11.5
	c-0.2,0.1-0.5,0.1-0.7,0.1c-7.7,0-13.9-5.2-13.9-11.5C204,394.8,210.2,389.7,217.9,389.7z M306.2,415.6c0.1-0.1,0.2-0.1,0.3-0.1
	c-3.3,1.6-4.6,5.8-3.4,9.7c1.1,3.8,4.4,5.9,7.7,4.7c-0.1,0.1-0.2,0.1-0.3,0.2c-3.4,1.5-7.2-0.5-8.4-4.5
	C300.9,421.5,302.7,417.1,306.2,415.6z M201.9,417.2l9.8-0.7c0.2,1.9,0.6,3.4,1.3,4.4c1.1,1.6,2.5,2.5,4.5,2.5
	c1.5,0,2.6-0.4,3.4-1.2s1.2-1.9,1.2-2.9c0-1.1-0.4-2-1.1-2.9c-0.7-0.8-2.5-1.6-5.3-2.4c-4.5-1.2-7.7-2.9-9.6-5c-2-2-2.9-4.7-2.9-7.8
	c0-2.1,0.5-4.1,1.5-5.9c1-1.9,2.5-3.4,4.5-4.5c2-1,4.7-1.6,8.2-1.6c4.3,0,7.5,1,9.7,2.9c2.3,1.9,3.5,5,4,9.2l-9.7,0.7
	c-0.3-1.9-0.8-3.2-1.6-4.1c-0.8-0.8-2-1.2-3.4-1.2c-1.2,0-2.1,0.3-2.7,0.9c-0.6,0.6-0.9,1.4-0.9,2.3c0,0.7,0.2,1.2,0.7,1.8
	c0.5,0.5,1.6,1,3.4,1.5c4.5,1.2,7.7,2.4,9.7,3.6c2,1.2,3.4,2.7,4.3,4.5c0.8,1.8,1.3,3.8,1.3,6.1c0,2.6-0.6,5-1.7,7.2
	c-1.2,2.2-2.9,3.9-5,5c-2.1,1.2-4.8,1.7-8,1.7c-5.7,0-9.6-1.4-11.8-4C203.5,424.7,202.2,421.3,201.9,417.2z"/>
<path class="st1" d="M167.2,411L167.2,411L167.2,411z M166.6,412.2c0-0.1,0.1-0.2,0.1-0.2c-0.1,0.1-0.1,0.1-0.2,0.2
	c-0.1,0.1-0.1,0.2-0.2,0.3C166.4,412.4,166.4,412.3,166.6,412.2z M166.1,413.5c0-0.2,0.1-0.3,0.1-0.5c-0.1,0.1-0.2,0.2-0.3,0.3
	c-0.1,0.2-0.1,0.3-0.2,0.6C165.8,413.8,165.9,413.7,166.1,413.5z M165.8,414.9c0.1-0.2,0.1-0.4,0.1-0.6c-0.1,0.2-0.3,0.3-0.4,0.5
	c-0.1,0.2-0.1,0.5-0.2,0.7C165.5,415.2,165.7,415,165.8,414.9z M165.8,416.2c0-0.3,0-0.5,0-0.7c-0.2,0.2-0.3,0.3-0.5,0.5
	c0,0.3,0,0.5,0,0.8C165.5,416.6,165.6,416.4,165.8,416.2z M166,417.6c-0.1-0.2-0.1-0.5-0.1-0.8c-0.2,0.2-0.3,0.4-0.6,0.6
	c0.1,0.3,0.1,0.6,0.1,0.9C165.6,418.1,165.8,417.8,166,417.6z M166.3,419.1c-0.1-0.3-0.1-0.6-0.2-0.9c-0.2,0.2-0.4,0.5-0.6,0.6
	c0.1,0.3,0.1,0.6,0.2,0.9C165.9,419.5,166.1,419.3,166.3,419.1z M166.8,420.6c-0.1-0.3-0.2-0.6-0.3-0.9c-0.2,0.3-0.4,0.5-0.6,0.7
	c0.1,0.3,0.2,0.6,0.3,0.9C166.4,421.1,166.7,420.8,166.8,420.6z M167.6,422.1c-0.2-0.3-0.3-0.6-0.5-0.9c-0.2,0.3-0.4,0.6-0.6,0.9
	c0.1,0.3,0.3,0.6,0.4,1C167.2,422.7,167.4,422.4,167.6,422.1z M168.5,423.7c-0.2-0.3-0.4-0.6-0.6-1c-0.2,0.3-0.3,0.6-0.6,1
	c0.2,0.3,0.4,0.7,0.6,1C168.2,424.4,168.3,424.1,168.5,423.7z M167.4,411L167.4,411L167.4,411L167.4,411z M166.9,412.4
	c0-0.1,0-0.2,0.1-0.2c-0.1,0.1-0.1,0.1-0.2,0.2c-0.1,0.1-0.1,0.2-0.1,0.3C166.7,412.6,166.8,412.5,166.9,412.4z M166.6,413.7
	c0-0.1,0.1-0.3,0.1-0.5c-0.1,0.2-0.2,0.3-0.3,0.4c0,0.2-0.1,0.3-0.1,0.6C166.4,414.1,166.5,413.9,166.6,413.7z M166.6,415.1
	c0-0.2,0-0.4,0-0.6c-0.1,0.2-0.2,0.3-0.3,0.5c0,0.2,0,0.5,0,0.7C166.3,415.5,166.4,415.3,166.6,415.1z M166.7,416.5
	c0-0.2-0.1-0.5-0.1-0.7c-0.1,0.2-0.2,0.4-0.4,0.6c0.1,0.2,0.1,0.5,0.1,0.8C166.5,416.9,166.6,416.7,166.7,416.5z M167.1,417.8
	c-0.1-0.3-0.2-0.5-0.2-0.7c-0.2,0.2-0.3,0.4-0.5,0.6c0.1,0.3,0.1,0.6,0.2,0.9C166.8,418.3,167,418.1,167.1,417.8z M167.6,419.2
	c-0.1-0.3-0.2-0.5-0.3-0.8c-0.1,0.2-0.3,0.5-0.5,0.7c0.1,0.3,0.2,0.6,0.3,0.9C167.4,419.7,167.5,419.5,167.6,419.2z M168.4,420.6
	c-0.2-0.3-0.3-0.6-0.5-0.9c-0.1,0.3-0.3,0.6-0.5,0.9c0.2,0.3,0.3,0.6,0.5,0.9C168.1,421.2,168.3,420.9,168.4,420.6z M169.3,422
	c-0.2-0.3-0.4-0.6-0.6-0.9c-0.1,0.3-0.3,0.6-0.5,0.9c0.2,0.3,0.4,0.6,0.6,0.9C169.1,422.7,169.2,422.3,169.3,422z M167.5,411.1
	L167.5,411.1L167.5,411.1L167.5,411.1z M167.2,412.5c0-0.1,0-0.2,0-0.3c0,0.1-0.1,0.2-0.1,0.2c0,0.1,0,0.2-0.1,0.3
	C167.1,412.8,167.2,412.7,167.2,412.5z M167.2,413.9c0-0.2,0-0.3,0-0.5c-0.1,0.1-0.2,0.3-0.2,0.4c0,0.2,0,0.4,0,0.6
	C167,414.3,167.1,414.1,167.2,413.9z M167.4,415.3c-0.1-0.2-0.1-0.4-0.1-0.6c-0.1,0.2-0.2,0.4-0.3,0.6c0.1,0.2,0.1,0.5,0.1,0.7
	C167.2,415.7,167.2,415.5,167.4,415.3z M167.7,416.6c-0.1-0.2-0.1-0.5-0.2-0.7c-0.1,0.2-0.2,0.5-0.3,0.6c0.1,0.3,0.1,0.5,0.2,0.7
	C167.5,417,167.6,416.8,167.7,416.6z M168.3,417.9c-0.1-0.3-0.2-0.5-0.3-0.7c-0.1,0.2-0.2,0.5-0.3,0.7c0.1,0.2,0.2,0.5,0.3,0.7
	C168.1,418.4,168.2,418.1,168.3,417.9z M169,419.1c-0.2-0.2-0.3-0.5-0.5-0.7c-0.1,0.3-0.2,0.5-0.3,0.8c0.2,0.3,0.3,0.5,0.5,0.8
	C168.8,419.7,168.9,419.4,169,419.1z M170,420.4c-0.2-0.2-0.4-0.5-0.6-0.7c-0.1,0.3-0.2,0.6-0.3,0.9c0.2,0.2,0.4,0.5,0.6,0.7
	C169.7,421,169.9,420.7,170,420.4z M167.7,411.1L167.7,411.1L167.7,411.1L167.7,411.1z M167.6,412.6c0-0.1,0-0.2,0-0.3
	C167.6,412.4,167.5,412.5,167.6,412.6c-0.1,0.1-0.1,0.2-0.1,0.3C167.5,412.8,167.6,412.7,167.6,412.6z M167.8,414
	c0-0.1-0.1-0.3-0.1-0.5c-0.1,0.2-0.1,0.3-0.2,0.5c0.1,0.2,0.1,0.4,0.1,0.6C167.6,414.4,167.7,414.1,167.8,414z M168.2,415.3
	c-0.1-0.2-0.2-0.3-0.2-0.6c-0.1,0.2-0.1,0.4-0.2,0.6c0.1,0.2,0.1,0.5,0.2,0.7C168,415.7,168.1,415.5,168.2,415.3z M168.7,416.5
	c-0.1-0.2-0.2-0.4-0.3-0.6c-0.1,0.2-0.1,0.5-0.2,0.7c0.1,0.2,0.2,0.5,0.3,0.7C168.5,417,168.7,416.8,168.7,416.5z M169.5,417.7
	c-0.2-0.2-0.3-0.5-0.5-0.6c-0.1,0.2-0.2,0.5-0.2,0.7c0.1,0.2,0.3,0.5,0.5,0.7C169.3,418.3,169.4,418,169.5,417.7z M170.4,418.9
	c-0.2-0.2-0.4-0.4-0.6-0.6c-0.1,0.3-0.1,0.6-0.2,0.9c0.2,0.2,0.4,0.5,0.6,0.7C170.3,419.5,170.3,419.2,170.4,418.9z M167.9,411.2
	L167.9,411.2z M168,412.6c0-0.1,0-0.2-0.1-0.2C167.9,412.4,167.9,412.5,168,412.6c-0.1,0.1-0.1,0.3-0.1,0.4
	C168,412.9,168,412.7,168,412.6z M168.3,414c0-0.2-0.1-0.3-0.1-0.5c0,0.2-0.1,0.3-0.1,0.5c0,0.2,0.1,0.4,0.1,0.6
	C168.3,414.4,168.3,414.1,168.3,414z M168.9,415.2c-0.1-0.2-0.2-0.3-0.2-0.6c-0.1,0.2-0.1,0.4-0.1,0.6c0.1,0.2,0.2,0.4,0.3,0.6
	C168.8,415.7,168.9,415.4,168.9,415.2z M169.6,416.4c-0.1-0.2-0.3-0.4-0.4-0.6c0,0.2-0.1,0.5-0.1,0.7c0.2,0.2,0.3,0.5,0.5,0.7
	C169.6,416.9,169.6,416.6,169.6,416.4z M170.5,417.4c-0.2-0.2-0.3-0.4-0.5-0.6c0,0.3-0.1,0.6-0.1,0.8c0.2,0.2,0.3,0.5,0.6,0.7
	C170.5,418,170.5,417.7,170.5,417.4z M168,411.2L168,411.2z M168.4,412.6c-0.1-0.1-0.1-0.2-0.1-0.3c0,0.1,0,0.2,0,0.3
	c0.1,0.1,0.1,0.2,0.1,0.3C168.4,412.8,168.4,412.7,168.4,412.6z M168.9,413.9c-0.1-0.1-0.2-0.3-0.2-0.4c0,0.2,0,0.3,0,0.5
	c0.1,0.2,0.1,0.3,0.2,0.5C168.9,414.3,168.9,414,168.9,413.9z M169.7,415c-0.2-0.2-0.3-0.3-0.4-0.5c0.1,0.2,0,0.4,0,0.6
	c0.1,0.2,0.3,0.4,0.4,0.6C169.7,415.4,169.7,415.2,169.7,415z M170.5,416c-0.2-0.2-0.3-0.3-0.5-0.5c0,0.2,0,0.5,0,0.7
	c0.2,0.2,0.3,0.4,0.5,0.6C170.6,416.5,170.6,416.3,170.5,416z M168.2,411.1L168.2,411.1L168.2,411.1L168.2,411.1z M168.7,412.5
	c0-0.1-0.1-0.2-0.1-0.2C168.7,412.4,168.7,412.4,168.7,412.5c0,0.2,0.1,0.3,0.1,0.3C168.8,412.7,168.8,412.6,168.7,412.5z
	 M169.5,413.7c-0.1-0.1-0.2-0.2-0.2-0.4c0,0.2,0,0.3,0.1,0.5c0.1,0.2,0.2,0.3,0.3,0.5C169.6,414,169.5,413.9,169.5,413.7z
	 M170.4,414.7c-0.1-0.2-0.3-0.3-0.4-0.5c0,0.2,0.1,0.4,0.1,0.6c0.2,0.2,0.3,0.3,0.5,0.5C170.5,415.2,170.4,414.9,170.4,414.7z
	 M168.3,411.1L168.3,411.1L168.3,411.1L168.3,411.1z M169.1,412.4c-0.1-0.1-0.1-0.2-0.2-0.2c0,0.1,0.1,0.2,0.1,0.2
	c0.1,0.1,0.1,0.2,0.2,0.3C169.2,412.6,169.1,412.5,169.1,412.4z M170,413.4c-0.1-0.1-0.2-0.2-0.3-0.3c0.1,0.2,0.1,0.3,0.1,0.5
	c0.1,0.2,0.2,0.3,0.4,0.5C170.1,413.7,170.1,413.6,170,413.4z M168.5,411L168.5,411z M169.4,412.1c-0.1-0.1-0.1-0.1-0.2-0.2
	C169.3,412,169.3,412.1,169.4,412.1c0,0.2,0.1,0.2,0.2,0.3C169.5,412.4,169.5,412.3,169.4,412.1z M168.7,411L168.7,411L168.7,411z
	 M172.2,401c0.6,0,1.1,0.5,1.1,1.1c0,0.6-0.5,1.1-1.1,1.1c-0.6,0-1.1-0.5-1.1-1.1C171.1,401.5,171.6,401,172.2,401z M163.7,401
	c0.6,0,1.1,0.5,1.1,1.1c0,0.6-0.5,1.1-1.1,1.1c-0.6,0-1.1-0.5-1.1-1.1C162.6,401.5,163.1,401,163.7,401z M168.3,410
	c5.9-0.7,10.1-5.1,10.7-18.8c-0.2-0.3-0.4-0.3-0.6-0.6c-0.1-2.2-0.2-4.2-1-5.8c0.5,0.2,1.1,0.3,1.6,0.5c2.5,14.2-2.7,24.3-10,24.7
	l-0.1,0.2c5.6,0.6,10.6-2.5,15.1-15c-0.1-0.3-0.3-0.4-0.4-0.7c0.5-2.1,1-4.1,0.7-5.9c0.5,0.3,0.9,0.6,1.4,1
	c-1.8,14.2-9.8,22.4-16.8,20.7l-0.1,0.2c5.1,2.2,10.9,0.7,18.8-9.9c-0.1-0.3-0.2-0.5-0.2-0.8c1.1-1.8,2.1-3.6,2.4-5.4
	c0.3,0.5,0.7,0.9,1,1.4c-5.9,13.1-15.9,18.5-22.2,14.8l-0.1,0.2c4.2,3.6,10.2,3.9,20.9-3.9c0.1-0.3-0.1-0.5,0.1-0.9
	c1.6-1.4,3.1-2.8,3.9-4.4c0.2,0.6,0.4,1.1,0.6,1.6c-9,10.2-19.4,12.8-24.7,8.5l0.6,1c0.1,0.2,0.1,0.3,0.2,0.4
	c3.3,3.1,9,3.8,19.3,0.2c0.2-0.3,0.2-0.5,0.3-0.7c1.9-0.9,3.8-1.8,5-3.1c0,0.6,0.1,1.1,0.1,1.7c-10.2,6.3-19.8,6.5-24.5,2.7
	c0.1,0.2,0.1,0.4,0.2,0.6l0.2,0.7c0,0.2,0.1,0.5,0.1,0.7c2.8,2.6,8,4.1,16.7,3.8c0.3-0.2,0.3-0.4,0.5-0.6c2.2-0.3,4.2-0.6,5.7-1.5
	c-0.1,0.6-0.2,1.1-0.3,1.6c-10,2.6-18.3,1-22.5-2.7c0.1,0.4,0,1.7-0.1,2.2c2.4,2.4,6.6,4.5,13.1,6.3c0.3-0.1,0.4-0.3,0.7-0.5
	c2.1,0.3,4.2,0.7,5.9,0.2c-0.3,0.5-0.6,1-0.9,1.5c-8.6-0.4-15.2-3.2-18.9-6.9c-0.2,0.8-0.5,1.7-0.7,2.6c1.9,2.2,4.8,4.6,8.8,7.1
	c0.3,0,0.5-0.2,0.7-0.2c1.9,1,3.8,1.9,5.6,2c-0.4,0.3-0.9,0.7-1.3,1.1c-6.4-2.3-11.2-5.7-14.1-9.3c-0.4,0.9-1,2-1.4,2.9
	c1.1,1.8,2.6,3.8,4.4,5.9c0.3,0.1,0.5-0.1,0.8,0c1.6,1.5,3.1,2.9,4.8,3.5c-0.5,0.2-1,0.5-1.5,0.7c-4-3-6.9-6.2-8.9-9.4
	c-2,3.2-4.9,6.4-8.9,9.4c-0.5-0.3-1-0.5-1.5-0.7c1.7-0.6,3.2-2,4.7-3.5c0.3-0.1,0.5,0.1,0.9,0c1.8-2.1,3.2-4.1,4.4-5.9
	c-0.2-0.4-0.4-0.7-0.6-1.1l-0.3-0.7c-0.2-0.3-0.3-0.7-0.5-1c-2.9,3.6-7.7,6.9-14.2,9.3c-0.4-0.4-0.8-0.8-1.2-1.1
	c1.8-0.1,3.6-1,5.5-2c0.3,0.1,0.5,0.2,0.8,0.2c4-2.5,6.9-4.9,8.8-7.1c-0.1-0.3-0.2-0.7-0.3-1l-0.2-0.7c-0.1-0.3-0.2-0.6-0.2-0.9
	c-3.6,3.7-10.2,6.5-18.9,6.9c-0.3-0.5-0.6-1-0.9-1.5c1.8,0.5,3.8,0.1,5.9-0.2c0.3,0.1,0.3,0.3,0.6,0.5c6.5-1.8,10.6-3.9,13.1-6.3
	c0-0.3-0.1-0.6-0.1-0.9l-0.1-0.6c0-0.3,0-0.6,0-0.8c-4.2,3.7-12.5,5.2-22.5,2.7c-0.1-0.6-0.2-1.1-0.4-1.6c1.6,0.9,3.6,1.3,5.7,1.5
	c0.2,0.2,0.2,0.4,0.5,0.6c8.8,0.3,13.9-1.1,16.7-3.8c0.1-0.2,0.1-0.5,0.1-0.7l0.1-0.7c0.1-0.2,0.1-0.4,0.2-0.6
	c-4.7,3.9-14.3,3.6-24.5-2.7c0.1-0.6,0.1-1.1,0.1-1.7c1.2,1.4,3.1,2.2,5,3.1c0.2,0.3,0.1,0.5,0.3,0.7c10.4,3.6,16,2.8,19.3-0.2
	c0.1-0.2,0.1-0.3,0.2-0.5l0.5-0.8l0.2-0.2c-5.3,4.3-15.8,1.6-24.7-8.5c0.2-0.5,0.4-1,0.6-1.6c0.7,1.6,2.3,3,3.9,4.4
	c0.1,0.3-0.1,0.5,0.1,0.9c10.6,7.8,16.7,7.5,20.9,3.9l-0.1-0.2c-6.3,3.7-16.3-1.8-22.2-14.8c0.3-0.5,0.7-0.9,1-1.4
	c0.2,1.8,1.3,3.6,2.4,5.4c0,0.3-0.2,0.5-0.2,0.8c7.9,10.6,13.7,12.1,18.8,9.9l-0.1-0.2c-7.1,1.7-15-6.5-16.8-20.7
	c0.5-0.3,0.9-0.7,1.4-1c-0.3,1.8,0.2,3.8,0.7,5.9c-0.1,0.3-0.3,0.3-0.4,0.7c4.4,12.5,9.6,15.6,15.1,15V410
	c-7.3-0.4-12.5-10.6-10-24.7c0.6-0.2,1.1-0.3,1.6-0.5c-0.8,1.6-1,3.6-1.1,5.8c-0.2,0.3-0.4,0.3-0.6,0.6c0.6,13.8,4.9,18.1,10.7,18.8
	c-0.8-0.2-1.4-0.9-1.4-1.8c0-1.1,0.8-1.9,1.8-1.9c1,0,1.8,0.9,1.8,1.9C169.7,409.1,169.1,409.8,168.3,410z"/>
<path class="st0" d="M167.2,411L167.2,411L167.2,411z M166.6,412.2c0-0.1,0.1-0.2,0.1-0.2c-0.1,0.1-0.1,0.1-0.2,0.2
	c-0.1,0.1-0.1,0.2-0.2,0.3C166.4,412.4,166.4,412.3,166.6,412.2z M166.1,413.5c0-0.2,0.1-0.3,0.1-0.5c-0.1,0.1-0.2,0.2-0.3,0.3
	c-0.1,0.2-0.1,0.3-0.2,0.6C165.8,413.8,165.9,413.7,166.1,413.5z M165.8,414.9c0.1-0.2,0.1-0.4,0.1-0.6c-0.1,0.2-0.3,0.3-0.4,0.5
	c-0.1,0.2-0.1,0.5-0.2,0.7C165.5,415.2,165.7,415,165.8,414.9z M165.8,416.2c0-0.3,0-0.5,0-0.7c-0.2,0.2-0.3,0.3-0.5,0.5
	c0,0.3,0,0.5,0,0.8C165.5,416.6,165.6,416.4,165.8,416.2z M166,417.6c-0.1-0.2-0.1-0.5-0.1-0.8c-0.2,0.2-0.3,0.4-0.6,0.6
	c0.1,0.3,0.1,0.6,0.1,0.9C165.6,418.1,165.8,417.8,166,417.6z M166.3,419.1c-0.1-0.3-0.1-0.6-0.2-0.9c-0.2,0.2-0.4,0.5-0.6,0.6
	c0.1,0.3,0.1,0.6,0.2,0.9C165.9,419.5,166.1,419.3,166.3,419.1z M166.8,420.6c-0.1-0.3-0.2-0.6-0.3-0.9c-0.2,0.3-0.4,0.5-0.6,0.7
	c0.1,0.3,0.2,0.6,0.3,0.9C166.4,421.1,166.7,420.8,166.8,420.6z M167.6,422.1c-0.2-0.3-0.3-0.6-0.5-0.9c-0.2,0.3-0.4,0.6-0.6,0.9
	c0.1,0.3,0.3,0.6,0.4,1C167.2,422.7,167.4,422.4,167.6,422.1z M168.5,423.7c-0.2-0.3-0.4-0.6-0.6-1c-0.2,0.3-0.3,0.6-0.6,1
	c0.2,0.3,0.4,0.7,0.6,1C168.2,424.4,168.3,424.1,168.5,423.7z M167.4,411L167.4,411L167.4,411L167.4,411z M166.9,412.4
	c0-0.1,0-0.2,0.1-0.2c-0.1,0.1-0.1,0.1-0.2,0.2c-0.1,0.1-0.1,0.2-0.1,0.3C166.7,412.6,166.8,412.5,166.9,412.4z M166.6,413.7
	c0-0.1,0.1-0.3,0.1-0.5c-0.1,0.2-0.2,0.3-0.3,0.4c0,0.2-0.1,0.3-0.1,0.6C166.4,414.1,166.5,413.9,166.6,413.7z M166.6,415.1
	c0-0.2,0-0.4,0-0.6c-0.1,0.2-0.2,0.3-0.3,0.5c0,0.2,0,0.5,0,0.7C166.3,415.5,166.4,415.3,166.6,415.1z M166.7,416.5
	c0-0.2-0.1-0.5-0.1-0.7c-0.1,0.2-0.2,0.4-0.4,0.6c0.1,0.2,0.1,0.5,0.1,0.8C166.5,416.9,166.6,416.7,166.7,416.5z M167.1,417.8
	c-0.1-0.3-0.2-0.5-0.2-0.7c-0.2,0.2-0.3,0.4-0.5,0.6c0.1,0.3,0.1,0.6,0.2,0.9C166.8,418.3,167,418.1,167.1,417.8z M167.6,419.2
	c-0.1-0.3-0.2-0.5-0.3-0.8c-0.1,0.2-0.3,0.5-0.5,0.7c0.1,0.3,0.2,0.6,0.3,0.9C167.4,419.7,167.5,419.5,167.6,419.2z M168.4,420.6
	c-0.2-0.3-0.3-0.6-0.5-0.9c-0.1,0.3-0.3,0.6-0.5,0.9c0.2,0.3,0.3,0.6,0.5,0.9C168.1,421.2,168.3,420.9,168.4,420.6z M169.3,422
	c-0.2-0.3-0.4-0.6-0.6-0.9c-0.1,0.3-0.3,0.6-0.5,0.9c0.2,0.3,0.4,0.6,0.6,0.9C169.1,422.7,169.2,422.3,169.3,422z M167.5,411.1
	L167.5,411.1L167.5,411.1L167.5,411.1z M167.2,412.5c0-0.1,0-0.2,0-0.3c0,0.1-0.1,0.2-0.1,0.2c0,0.1,0,0.2-0.1,0.3
	C167.1,412.8,167.2,412.7,167.2,412.5z M167.2,413.9c0-0.2,0-0.3,0-0.5c-0.1,0.1-0.2,0.3-0.2,0.4c0,0.2,0,0.4,0,0.6
	C167,414.3,167.1,414.1,167.2,413.9z M167.4,415.3c-0.1-0.2-0.1-0.4-0.1-0.6c-0.1,0.2-0.2,0.4-0.3,0.6c0.1,0.2,0.1,0.5,0.1,0.7
	C167.2,415.7,167.2,415.5,167.4,415.3z M167.7,416.6c-0.1-0.2-0.1-0.5-0.2-0.7c-0.1,0.2-0.2,0.5-0.3,0.6c0.1,0.3,0.1,0.5,0.2,0.7
	C167.5,417,167.6,416.8,167.7,416.6z M168.3,417.9c-0.1-0.3-0.2-0.5-0.3-0.7c-0.1,0.2-0.2,0.5-0.3,0.7c0.1,0.2,0.2,0.5,0.3,0.7
	C168.1,418.4,168.2,418.1,168.3,417.9z M169,419.1c-0.2-0.2-0.3-0.5-0.5-0.7c-0.1,0.3-0.2,0.5-0.3,0.8c0.2,0.3,0.3,0.5,0.5,0.8
	C168.8,419.7,168.9,419.4,169,419.1z M170,420.4c-0.2-0.2-0.4-0.5-0.6-0.7c-0.1,0.3-0.2,0.6-0.3,0.9c0.2,0.2,0.4,0.5,0.6,0.7
	C169.7,421,169.9,420.7,170,420.4z M167.7,411.1L167.7,411.1L167.7,411.1L167.7,411.1z M167.6,412.6c0-0.1,0-0.2,0-0.3
	C167.6,412.4,167.5,412.5,167.6,412.6c-0.1,0.1-0.1,0.2-0.1,0.3C167.5,412.8,167.6,412.7,167.6,412.6z M167.8,414
	c0-0.1-0.1-0.3-0.1-0.5c-0.1,0.2-0.1,0.3-0.2,0.5c0.1,0.2,0.1,0.4,0.1,0.6C167.6,414.4,167.7,414.1,167.8,414z M168.2,415.3
	c-0.1-0.2-0.2-0.3-0.2-0.6c-0.1,0.2-0.1,0.4-0.2,0.6c0.1,0.2,0.1,0.5,0.2,0.7C168,415.7,168.1,415.5,168.2,415.3z M168.7,416.5
	c-0.1-0.2-0.2-0.4-0.3-0.6c-0.1,0.2-0.1,0.5-0.2,0.7c0.1,0.2,0.2,0.5,0.3,0.7C168.5,417,168.7,416.8,168.7,416.5z M169.5,417.7
	c-0.2-0.2-0.3-0.5-0.5-0.6c-0.1,0.2-0.2,0.5-0.2,0.7c0.1,0.2,0.3,0.5,0.5,0.7C169.3,418.3,169.4,418,169.5,417.7z M170.4,418.9
	c-0.2-0.2-0.4-0.4-0.6-0.6c-0.1,0.3-0.1,0.6-0.2,0.9c0.2,0.2,0.4,0.5,0.6,0.7C170.3,419.5,170.3,419.2,170.4,418.9z M167.9,411.2
	L167.9,411.2z M168,412.6c0-0.1,0-0.2-0.1-0.2C167.9,412.4,167.9,412.5,168,412.6c-0.1,0.1-0.1,0.3-0.1,0.4
	C168,412.9,168,412.7,168,412.6z M168.3,414c0-0.2-0.1-0.3-0.1-0.5c0,0.2-0.1,0.3-0.1,0.5c0,0.2,0.1,0.4,0.1,0.6
	C168.3,414.4,168.3,414.1,168.3,414z M168.9,415.2c-0.1-0.2-0.2-0.3-0.2-0.6c-0.1,0.2-0.1,0.4-0.1,0.6c0.1,0.2,0.2,0.4,0.3,0.6
	C168.8,415.7,168.9,415.4,168.9,415.2z M169.6,416.4c-0.1-0.2-0.3-0.4-0.4-0.6c0,0.2-0.1,0.5-0.1,0.7c0.2,0.2,0.3,0.5,0.5,0.7
	C169.6,416.9,169.6,416.6,169.6,416.4z M170.5,417.4c-0.2-0.2-0.3-0.4-0.5-0.6c0,0.3-0.1,0.6-0.1,0.8c0.2,0.2,0.3,0.5,0.6,0.7
	C170.5,418,170.5,417.7,170.5,417.4z M168,411.2L168,411.2z M168.4,412.6c-0.1-0.1-0.1-0.2-0.1-0.3c0,0.1,0,0.2,0,0.3
	c0.1,0.1,0.1,0.2,0.1,0.3C168.4,412.8,168.4,412.7,168.4,412.6z M168.9,413.9c-0.1-0.1-0.2-0.3-0.2-0.4c0,0.2,0,0.3,0,0.5
	c0.1,0.2,0.1,0.3,0.2,0.5C168.9,414.3,168.9,414,168.9,413.9z M169.7,415c-0.2-0.2-0.3-0.3-0.4-0.5c0.1,0.2,0,0.4,0,0.6
	c0.1,0.2,0.3,0.4,0.4,0.6C169.7,415.4,169.7,415.2,169.7,415z M170.5,416c-0.2-0.2-0.3-0.3-0.5-0.5c0,0.2,0,0.5,0,0.7
	c0.2,0.2,0.3,0.4,0.5,0.6C170.6,416.5,170.6,416.3,170.5,416z M168.2,411.1L168.2,411.1L168.2,411.1L168.2,411.1z M168.7,412.5
	c0-0.1-0.1-0.2-0.1-0.2C168.7,412.4,168.7,412.4,168.7,412.5c0,0.2,0.1,0.3,0.1,0.3C168.8,412.7,168.8,412.6,168.7,412.5z
	 M169.5,413.7c-0.1-0.1-0.2-0.2-0.2-0.4c0,0.2,0,0.3,0.1,0.5c0.1,0.2,0.2,0.3,0.3,0.5C169.6,414,169.5,413.9,169.5,413.7z
	 M170.4,414.7c-0.1-0.2-0.3-0.3-0.4-0.5c0,0.2,0.1,0.4,0.1,0.6c0.2,0.2,0.3,0.3,0.5,0.5C170.5,415.2,170.4,414.9,170.4,414.7z
	 M168.3,411.1L168.3,411.1L168.3,411.1L168.3,411.1z M169.1,412.4c-0.1-0.1-0.1-0.2-0.2-0.2c0,0.1,0.1,0.2,0.1,0.2
	c0.1,0.1,0.1,0.2,0.2,0.3C169.2,412.6,169.1,412.5,169.1,412.4z M170,413.4c-0.1-0.1-0.2-0.2-0.3-0.3c0.1,0.2,0.1,0.3,0.1,0.5
	c0.1,0.2,0.2,0.3,0.4,0.5C170.1,413.7,170.1,413.6,170,413.4z M168.5,411L168.5,411z M169.4,412.1c-0.1-0.1-0.1-0.1-0.2-0.2
	C169.3,412,169.3,412.1,169.4,412.1c0,0.2,0.1,0.2,0.2,0.3C169.5,412.4,169.5,412.3,169.4,412.1z M168.7,411L168.7,411L168.7,411z
	 M172.2,401c0.6,0,1.1,0.5,1.1,1.1c0,0.6-0.5,1.1-1.1,1.1c-0.6,0-1.1-0.5-1.1-1.1C171.1,401.5,171.6,401,172.2,401z M163.7,401
	c0.6,0,1.1,0.5,1.1,1.1c0,0.6-0.5,1.1-1.1,1.1c-0.6,0-1.1-0.5-1.1-1.1C162.6,401.5,163.1,401,163.7,401z M168.3,410
	c5.9-0.7,10.1-5.1,10.7-18.8c-0.2-0.3-0.4-0.3-0.6-0.6c-0.1-2.2-0.2-4.2-1-5.8c0.5,0.2,1.1,0.3,1.6,0.5c2.5,14.2-2.7,24.3-10,24.7
	l-0.1,0.2c5.6,0.6,10.6-2.5,15.1-15c-0.1-0.3-0.3-0.4-0.4-0.7c0.5-2.1,1-4.1,0.7-5.9c0.5,0.3,0.9,0.6,1.4,1
	c-1.8,14.2-9.8,22.4-16.8,20.7l-0.1,0.2c5.1,2.2,10.9,0.7,18.8-9.9c-0.1-0.3-0.2-0.5-0.2-0.8c1.1-1.8,2.1-3.6,2.4-5.4
	c0.3,0.5,0.7,0.9,1,1.4c-5.9,13.1-15.9,18.5-22.2,14.8l-0.1,0.2c4.2,3.6,10.2,3.9,20.9-3.9c0.1-0.3-0.1-0.5,0.1-0.9
	c1.6-1.4,3.1-2.8,3.9-4.4c0.2,0.6,0.4,1.1,0.6,1.6c-9,10.2-19.4,12.8-24.7,8.5l0.6,1c0.1,0.2,0.1,0.3,0.2,0.4
	c3.3,3.1,9,3.8,19.3,0.2c0.2-0.3,0.2-0.5,0.3-0.7c1.9-0.9,3.8-1.8,5-3.1c0,0.6,0.1,1.1,0.1,1.7c-10.2,6.3-19.8,6.5-24.5,2.7
	c0.1,0.2,0.1,0.4,0.2,0.6l0.2,0.7c0,0.2,0.1,0.5,0.1,0.7c2.8,2.6,8,4.1,16.7,3.8c0.3-0.2,0.3-0.4,0.5-0.6c2.2-0.3,4.2-0.6,5.7-1.5
	c-0.1,0.6-0.2,1.1-0.3,1.6c-10,2.6-18.3,1-22.5-2.7c0.1,0.4,0,1.7-0.1,2.2c2.4,2.4,6.6,4.5,13.1,6.3c0.3-0.1,0.4-0.3,0.7-0.5
	c2.1,0.3,4.2,0.7,5.9,0.2c-0.3,0.5-0.6,1-0.9,1.5c-8.6-0.4-15.2-3.2-18.9-6.9c-0.2,0.8-0.5,1.7-0.7,2.6c1.9,2.2,4.8,4.6,8.8,7.1
	c0.3,0,0.5-0.2,0.7-0.2c1.9,1,3.8,1.9,5.6,2c-0.4,0.3-0.9,0.7-1.3,1.1c-6.4-2.3-11.2-5.7-14.1-9.3c-0.4,0.9-1,2-1.4,2.9
	c1.1,1.8,2.6,3.8,4.4,5.9c0.3,0.1,0.5-0.1,0.8,0c1.6,1.5,3.1,2.9,4.8,3.5c-0.5,0.2-1,0.5-1.5,0.7c-4-3-6.9-6.2-8.9-9.4
	c-2,3.2-4.9,6.4-8.9,9.4c-0.5-0.3-1-0.5-1.5-0.7c1.7-0.6,3.2-2,4.7-3.5c0.3-0.1,0.5,0.1,0.9,0c1.8-2.1,3.2-4.1,4.4-5.9
	c-0.2-0.4-0.4-0.7-0.6-1.1l-0.3-0.7c-0.2-0.3-0.3-0.7-0.5-1c-2.9,3.6-7.7,6.9-14.2,9.3c-0.4-0.4-0.8-0.8-1.2-1.1
	c1.8-0.1,3.6-1,5.5-2c0.3,0.1,0.5,0.2,0.8,0.2c4-2.5,6.9-4.9,8.8-7.1c-0.1-0.3-0.2-0.7-0.3-1l-0.2-0.7c-0.1-0.3-0.2-0.6-0.2-0.9
	c-3.6,3.7-10.2,6.5-18.9,6.9c-0.3-0.5-0.6-1-0.9-1.5c1.8,0.5,3.8,0.1,5.9-0.2c0.3,0.1,0.3,0.3,0.6,0.5c6.5-1.8,10.6-3.9,13.1-6.3
	c0-0.3-0.1-0.6-0.1-0.9l-0.1-0.6c0-0.3,0-0.6,0-0.8c-4.2,3.7-12.5,5.2-22.5,2.7c-0.1-0.6-0.2-1.1-0.4-1.6c1.6,0.9,3.6,1.3,5.7,1.5
	c0.2,0.2,0.2,0.4,0.5,0.6c8.8,0.3,13.9-1.1,16.7-3.8c0.1-0.2,0.1-0.5,0.1-0.7l0.1-0.7c0.1-0.2,0.1-0.4,0.2-0.6
	c-4.7,3.9-14.3,3.6-24.5-2.7c0.1-0.6,0.1-1.1,0.1-1.7c1.2,1.4,3.1,2.2,5,3.1c0.2,0.3,0.1,0.5,0.3,0.7c10.4,3.6,16,2.8,19.3-0.2
	c0.1-0.2,0.1-0.3,0.2-0.5l0.5-0.8l0.2-0.2c-5.3,4.3-15.8,1.6-24.7-8.5c0.2-0.5,0.4-1,0.6-1.6c0.7,1.6,2.3,3,3.9,4.4
	c0.1,0.3-0.1,0.5,0.1,0.9c10.6,7.8,16.7,7.5,20.9,3.9l-0.1-0.2c-6.3,3.7-16.3-1.8-22.2-14.8c0.3-0.5,0.7-0.9,1-1.4
	c0.2,1.8,1.3,3.6,2.4,5.4c0,0.3-0.2,0.5-0.2,0.8c7.9,10.6,13.7,12.1,18.8,9.9l-0.1-0.2c-7.1,1.7-15-6.5-16.8-20.7
	c0.5-0.3,0.9-0.7,1.4-1c-0.3,1.8,0.2,3.8,0.7,5.9c-0.1,0.3-0.3,0.3-0.4,0.7c4.4,12.5,9.6,15.6,15.1,15V410
	c-7.3-0.4-12.5-10.6-10-24.7c0.6-0.2,1.1-0.3,1.6-0.5c-0.8,1.6-1,3.6-1.1,5.8c-0.2,0.3-0.4,0.3-0.6,0.6c0.6,13.8,4.9,18.1,10.7,18.8
	c-0.8-0.2-1.4-0.9-1.4-1.8c0-1.1,0.8-1.9,1.8-1.9c1,0,1.8,0.9,1.8,1.9C169.7,409.1,169.1,409.8,168.3,410z"/>
<path class="st0" d="M448.8,395.1c2.7,0,4.8,2.2,4.8,4.8c0,2.7-2.2,4.8-4.8,4.8c-2.7,0-4.8-2.2-4.8-4.8
	C443.9,397.2,446.1,395.1,448.8,395.1 M448.8,394.3c3.1,0,5.6,2.5,5.6,5.6c0,3.1-2.5,5.6-5.6,5.6c-3.1,0-5.6-2.5-5.6-5.6
	C443.1,396.8,445.7,394.3,448.8,394.3z"/>
<path class="st0" d="M448.5,399.4c0.3,0,0.5-0.1,0.7-0.2c0.1-0.1,0.2-0.3,0.2-0.6c0-0.3-0.1-0.5-0.2-0.6c-0.1-0.1-0.4-0.2-0.7-0.2
	h-0.6v1.5H448.5z M447.9,400.5v2.2h-1.5v-5.8h2.3c0.8,0,1.3,0.1,1.7,0.4c0.4,0.3,0.5,0.7,0.5,1.2c0,0.4-0.1,0.7-0.3,1
	c-0.2,0.2-0.5,0.4-0.8,0.5c0.2,0,0.4,0.2,0.6,0.3c0.2,0.2,0.3,0.4,0.5,0.8l0.8,1.7H450l-0.7-1.5c-0.1-0.3-0.3-0.5-0.4-0.6
	c-0.1-0.1-0.3-0.2-0.6-0.2H447.9z"/>
<path class="st0" d="M419.3,445c0,0.3,0,0.6,0.4,0.9c0.5,0.5,1.4,0.4,1.8-0.2c0.4-0.5,0.9-1,1.3-1.4c1.8-1.7,4.9-3,7.3-3.4
	c1.9-0.3,3.8-0.2,5.7,0.4c0.9,0.3,2.2,0.8,3,1.2c0.2,0.1,0.4,0.2,0.7,0.4c1.2,0.8,1.1,0.7,2.1,1.6c0.7,0.6,0.4,0.4,0.8,0.8
	c0.1,0.1,0.2,0.2,0.2,0.3c1,1.2,2.2,0.3,2.2-0.4v-0.3c0-0.2,0-0.3-0.2-0.5l-1.7-1.8c-0.6-0.6-1.3-1.1-2.1-1.5l-1.1-0.7
	c-2.5-1.2-4.7-1.9-7.7-1.9c-3,0-6.3,0.9-8.8,2.6c-0.5,0.4-0.9,0.5-1.4,1l-1,0.8c-0.1,0.1-0.1,0.1-0.2,0.1c-0.4,0.4-1.5,1.4-1.5,1.9
	V445z"/>
<path class="st0" d="M422.8,448c0,0.8,1.1,1.8,2.2,0.7c0.8-0.8,1.2-1.3,2.3-2c3.4-2.1,8.2-1.6,11.1,1.2c0.6,0.6,1,1.2,1.7,1.2
	c0.8,0,1.9-1,0.6-2.3c-0.6-0.6-0.6-0.7-1.3-1.3c-0.4-0.3-1.1-0.8-1.6-1.1c-4-2.2-8.7-1.9-12.4,0.7c-0.7,0.5-1.8,1.5-2.3,2.1
	C422.9,447.5,422.8,447.8,422.8,448"/>
<path class="st0" d="M426.4,450.9c0,0.4,0,0.7,0.4,1c0.2,0.2,0.5,0.3,0.9,0.3c0.9,0,1-1.2,3-1.9c1.7-0.6,3.5,0,4.8,1.2
	c0.4,0.4,0.5,0.6,1.2,0.6c0.6,0,1.1-0.6,1.1-1c0-0.9-0.2-0.9-0.8-1.5c-0.7-0.7-1.7-1.3-2.6-1.6c-2.4-0.8-5.3-0.2-7,1.5
	C426.9,449.9,426.4,450.3,426.4,450.9"/>
<path class="st0" d="M429.7,454.7c0,0.5,0.1,1,0.4,1.4l0.4,0.4c0.2,0.2,0.2,0.2,0.5,0.3c1,0.4,1.8,0.2,2.6-0.4
	c0.2-0.1,0.4-0.5,0.5-0.7c0.7-1.5-0.3-3.4-2.1-3.4C430.7,452.4,429.7,453.4,429.7,454.7"/>
<path class="st2" d="M410.2,443.6h5.2v13.5h-5.2V443.6z M410.2,438.5h5.2v3.5h-5.2V438.5z M393.1,438.5h14.2v4h-8.4v3.2h7.2v3.8
	h-7.2v7.6h-5.8V438.5z M384.3,443.6h5.2v13.5h-5.2V443.6z M384.3,438.5h5.2v3.5h-5.2V438.5z M355.7,438.5h5.5l2,10.4l2.9-10.4h5.4
	l2.9,10.4l2-10.4h5.4l-4.1,18.6H372l-3.3-11.7l-3.2,11.7h-5.6L355.7,438.5z"/>
</svg>
