<?xml version="1.0" encoding="utf-8"?>
<!-- Generator: Adobe Illustrator 24.0.0, SVG Export Plug-In . SVG Version: 6.00 Build 0)  -->
<svg version="1.1" id="Layer_1" xmlns="http://www.w3.org/2000/svg" xmlns:xlink="http://www.w3.org/1999/xlink" x="0px" y="0px"
	 viewBox="0 0 41 40" style="enable-background:new 0 0 41 40;" xml:space="preserve">
<style type="text/css">
	.st0{fill-rule:evenodd;clip-rule:evenodd;fill:#FFFFFF;}
</style>
<path id="hamburger" class="st0" d="M7.8,5.5h26.6C35.8,5.5,37,6.6,37,8v0.4c0,1.4-1.1,2.5-2.5,2.5H7.8c-1.4,0-2.5-1.1-2.5-2.5V8
	C5.3,6.6,6.5,5.5,7.8,5.5z M7.8,16.4h26.6c1.4,0,2.5,1.1,2.5,2.5v0.5c0,1.4-1.1,2.5-2.5,2.5H7.8c-1.4,0-2.5-1.1-2.5-2.5v-0.5
	C5.3,17.5,6.5,16.4,7.8,16.4z M7.8,27.3h26.6c1.4,0,2.5,1.1,2.5,2.5v0.5c0,1.4-1.1,2.5-2.5,2.5H7.8c-1.4,0-2.5-1.1-2.5-2.5v-0.5
	C5.3,28.4,6.5,27.3,7.8,27.3z"/>
</svg>
